<svg fill="#000000" xmlns="http://www.w3.org/2000/svg"  viewBox="0 0 50 50" width="50px" height="50px"><path d="M 25 2 C 12.264481 2 2 12.264481 2 25 C 2 37.735519 12.264481 48 25 48 C 37.735519 48 48 37.735519 48 25 C 48 12.264481 37.735519 2 25 2 z M 25 4 C 36.664481 4 46 13.335519 46 25 C 46 36.664481 36.664481 46 25 46 C 13.335519 46 4 36.664481 4 25 C 4 13.335519 13.335519 4 25 4 z M 25 11 A 3 3 0 0 0 25 17 A 3 3 0 0 0 25 11 z M 21 21 L 21 23 L 23 23 L 23 36 L 21 36 L 21 38 L 29 38 L 29 36 L 27 36 L 27 21 L 21 21 z"/></svg>